<svg width="135" height="67" viewBox="0 0 135 67" fill="none" xmlns="http://www.w3.org/2000/svg">
<path fill-rule="evenodd" clip-rule="evenodd" d="M0.199951 5.00004V33H13.48C14.9466 33 16.3066 32.8267 17.56 32.48C18.84 32.1334 19.96 31.6 20.92 30.88C21.9066 30.16 22.6666 29.2667 23.2 28.2C23.7333 27.1067 24 25.8267 24 24.36C24 23.16 23.7466 22.0934 23.24 21.16C22.7333 20.2267 22.0266 19.44 21.12 18.8C20.5314 18.3673 19.8754 18.0131 19.1519 17.7377C20.0794 17.3233 20.8154 16.7174 21.36 15.92C22.1333 14.8267 22.52 13.44 22.52 11.76C22.52 10.4 22.1466 9.21338 21.4 8.20004C20.68 7.18671 19.6133 6.40004 18.2 5.84004C16.8133 5.28004 15.1066 5.00004 13.08 5.00004H0.199951ZM13.24 26.2H8.19995V21.72H13.04C13.6 21.72 14.0666 21.8134 14.44 22C14.8133 22.16 15.0933 22.4 15.28 22.72C15.4933 23.0134 15.6 23.3867 15.6 23.84C15.6 24.3467 15.5066 24.7867 15.32 25.16C15.1333 25.5067 14.8666 25.7734 14.52 25.96C14.1733 26.12 13.7466 26.2 13.24 26.2ZM11.6 15.96H8.19995V11.8H11.52C12.48 11.8 13.16 12 13.56 12.4C13.9866 12.7734 14.2 13.2667 14.2 13.88C14.2 14.3334 14.1066 14.72 13.92 15.04C13.76 15.3334 13.48 15.56 13.08 15.72C12.7066 15.88 12.2133 15.96 11.6 15.96ZM31.4337 32.44C32.5537 33.1067 33.927 33.44 35.5537 33.44C36.727 33.44 37.8337 33.2134 38.8737 32.76C39.9137 32.3067 40.7937 31.6934 41.5137 30.92C41.6025 30.8249 41.688 30.7283 41.7704 30.6302L42.0337 33H49.4737V11.6H41.3537V24.32C41.3537 24.6667 41.287 25 41.1537 25.32C41.0204 25.6134 40.8337 25.88 40.5937 26.12C40.3537 26.36 40.0604 26.5467 39.7137 26.68C39.3937 26.7867 39.0337 26.84 38.6337 26.84C38.1004 26.84 37.647 26.7334 37.2737 26.52C36.9004 26.3067 36.607 26 36.3937 25.6C36.207 25.2 36.1137 24.7067 36.1137 24.12V11.6H27.9937V24.8C27.9937 26.64 28.287 28.2134 28.8737 29.52C29.4604 30.8 30.3137 31.7734 31.4337 32.44ZM55.2715 11.6V33H63.3915V11.6H55.2715ZM55.9515 6.72004C56.7782 7.38671 57.9115 7.72004 59.3515 7.72004C60.7648 7.72004 61.8848 7.36004 62.7115 6.64004C63.5382 5.92004 63.9515 5.00004 63.9515 3.88004C63.9515 2.65337 63.5382 1.70671 62.7115 1.04004C61.9115 0.373373 60.7915 0.0400391 59.3515 0.0400391C57.9382 0.0400391 56.8182 0.40004 55.9915 1.12004C55.1648 1.84004 54.7515 2.76004 54.7515 3.88004C54.7515 5.10671 55.1515 6.05337 55.9515 6.72004ZM69.1359 3.40004V33H77.2559V3.40004H69.1359ZM83.8496 18.4V33H91.9696V18.4H95.4896V11.6H91.9696V6.20004H83.8496V11.6H80.5296V18.4H83.8496ZM99.2168 11.6V33H107.337V11.6H99.2168ZM99.8968 6.72004C100.723 7.38671 101.857 7.72004 103.297 7.72004C104.71 7.72004 105.83 7.36004 106.657 6.64004C107.483 5.92004 107.897 5.00004 107.897 3.88004C107.897 2.65337 107.483 1.70671 106.657 1.04004C105.857 0.373373 104.737 0.0400391 103.297 0.0400391C101.883 0.0400391 100.763 0.40004 99.9368 1.12004C99.1102 1.84004 98.6968 2.76004 98.6968 3.88004C98.6968 5.10671 99.0968 6.05337 99.8968 6.72004ZM113.081 11.6V33H114.601H117.161H121.201V20.28C121.201 19.9067 121.268 19.5734 121.401 19.28C121.535 18.9867 121.721 18.72 121.961 18.48C122.201 18.24 122.481 18.0667 122.801 17.96C123.148 17.8267 123.521 17.76 123.921 17.76C124.428 17.76 124.868 17.8667 125.241 18.08C125.615 18.2934 125.895 18.6 126.081 19C126.268 19.4 126.361 19.8934 126.361 20.48V33H134.481V19.8C134.481 17.96 134.188 16.4 133.601 15.12C133.041 13.8134 132.201 12.8267 131.081 12.16C129.961 11.4934 128.601 11.16 127.001 11.16C125.801 11.16 124.668 11.3867 123.601 11.84C122.535 12.2934 121.615 12.92 120.841 13.72C120.828 13.7339 120.815 13.7477 120.801 13.7617L120.601 11.6H113.081ZM3.19995 38V66H16.48C17.9466 66 19.3066 65.8267 20.56 65.48C21.84 65.1334 22.96 64.6 23.92 63.88C24.9066 63.16 25.6666 62.2667 26.2 61.2C26.7333 60.1067 27 58.8267 27 57.36C27 56.16 26.7466 55.0934 26.24 54.16C25.7333 53.2267 25.0266 52.44 24.12 51.8C23.5314 51.3673 22.8754 51.0131 22.1519 50.7377C23.0794 50.3233 23.8154 49.7174 24.36 48.92C25.1333 47.8267 25.52 46.44 25.52 44.76C25.52 43.4 25.1466 42.2134 24.4 41.2C23.68 40.1867 22.6133 39.4 21.2 38.84C19.8133 38.28 18.1066 38 16.08 38H3.19995ZM16.24 59.2H11.2V54.72H16.04C16.6 54.72 17.0666 54.8134 17.44 55C17.8133 55.16 18.0933 55.4 18.28 55.72C18.4933 56.0134 18.6 56.3867 18.6 56.84C18.6 57.3467 18.5066 57.7867 18.32 58.16C18.1333 58.5067 17.8666 58.7734 17.52 58.96C17.1733 59.12 16.7466 59.2 16.24 59.2ZM14.6 48.96H11.2V44.8H14.52C15.48 44.8 16.16 45 16.56 45.4C16.9866 45.7734 17.2 46.2667 17.2 46.88C17.2 47.3334 17.1066 47.72 16.92 48.04C16.76 48.3334 16.48 48.56 16.08 48.72C15.7066 48.88 15.2133 48.96 14.6 48.96ZM35.5946 64.96C37.408 65.92 39.4746 66.4 41.7946 66.4C44.1146 66.4 46.168 65.92 47.9546 64.96C49.768 64 51.1813 62.6934 52.1946 61.04C53.2346 59.36 53.7546 57.44 53.7546 55.28C53.7546 53.12 53.2346 51.2134 52.1946 49.56C51.1813 47.88 49.768 46.56 47.9546 45.6C46.168 44.64 44.1146 44.16 41.7946 44.16C39.4746 44.16 37.408 44.64 35.5946 45.6C33.7813 46.56 32.3546 47.88 31.3146 49.56C30.2746 51.2134 29.7546 53.12 29.7546 55.28C29.7546 57.44 30.2746 59.36 31.3146 61.04C32.3546 62.6934 33.7813 64 35.5946 64.96ZM43.7146 59.04C43.1546 59.4134 42.5146 59.6 41.7946 59.6C41.048 59.6 40.3813 59.4134 39.7946 59.04C39.2346 58.6667 38.7813 58.16 38.4346 57.52C38.1146 56.8534 37.9546 56.1067 37.9546 55.28C37.9546 54.4267 38.1146 53.68 38.4346 53.04C38.7813 52.3734 39.2346 51.8534 39.7946 51.48C40.3813 51.1067 41.048 50.92 41.7946 50.92C42.5146 50.92 43.1546 51.1067 43.7146 51.48C44.3013 51.8534 44.7546 52.3734 45.0746 53.04C45.3946 53.68 45.5546 54.4267 45.5546 55.28C45.5546 56.1067 45.3946 56.8534 45.0746 57.52C44.7546 58.16 44.3013 58.6667 43.7146 59.04ZM60.6409 64.96C62.0276 65.8934 63.6142 66.36 65.4009 66.36C66.3609 66.36 67.2409 66.2267 68.0409 65.96C68.8409 65.6667 69.5609 65.28 70.2009 64.8C70.5484 64.5394 70.8684 64.2513 71.1609 63.9356V66H79.3209V44.6H71.3609V46.7467C71.0231 46.3556 70.6498 46 70.2409 45.68C69.6276 45.2 68.9209 44.8267 68.1209 44.56C67.3209 44.2934 66.4409 44.16 65.4809 44.16C63.6409 44.16 62.0142 44.64 60.6009 45.6C59.2142 46.5334 58.1209 47.84 57.3209 49.52C56.5476 51.1734 56.1609 53.0934 56.1609 55.28C56.1609 57.44 56.5609 59.36 57.3609 61.04C58.1609 62.6934 59.2542 64 60.6409 64.96ZM69.6809 59.24C69.1476 59.5867 68.4942 59.76 67.7209 59.76C66.9476 59.76 66.2942 59.5867 65.7609 59.24C65.2276 58.8934 64.8142 58.3867 64.5209 57.72C64.2542 57.0534 64.1209 56.24 64.1209 55.28C64.1209 54.32 64.2542 53.5067 64.5209 52.84C64.8142 52.1467 65.2276 51.6267 65.7609 51.28C66.2942 50.9334 66.9476 50.76 67.7209 50.76C68.4942 50.76 69.1476 50.9334 69.6809 51.28C70.2409 51.6267 70.6542 52.1467 70.9209 52.84C71.2142 53.5067 71.3609 54.32 71.3609 55.28C71.3609 56.24 71.2142 57.0534 70.9209 57.72C70.6542 58.3867 70.2409 58.8934 69.6809 59.24ZM84.9093 44.6V66H93.0293V56.08C93.0293 55.5467 93.096 55.08 93.2293 54.68C93.3627 54.28 93.5493 53.9334 93.7893 53.64C94.056 53.3467 94.376 53.1334 94.7493 53C95.1493 52.84 95.5893 52.76 96.0693 52.76C96.736 52.76 97.3493 52.84 97.9093 53C98.496 53.16 98.9227 53.3334 99.1893 53.52L101.429 44.52C101.029 44.4134 100.616 44.3334 100.189 44.28C99.7627 44.2 99.3093 44.16 98.8293 44.16C97.6293 44.16 96.496 44.44 95.4293 45C94.3893 45.56 93.496 46.3334 92.7493 47.32C92.7068 47.3747 92.665 47.4297 92.6238 47.4852L92.4293 44.6H84.9093ZM106.537 65.04C107.924 65.9734 109.497 66.44 111.257 66.44C112.244 66.44 113.177 66.32 114.057 66.08C114.937 65.84 115.711 65.5067 116.377 65.08C116.885 64.7675 117.329 64.4119 117.708 64.0135L117.977 66H125.297V36.4H117.137V46.3133C116.879 46.0697 116.599 45.8453 116.297 45.64C115.631 45.16 114.884 44.8 114.057 44.56C113.231 44.2934 112.364 44.16 111.457 44.16C109.644 44.16 108.031 44.64 106.617 45.6C105.231 46.56 104.137 47.88 103.337 49.56C102.537 51.24 102.137 53.16 102.137 55.32C102.137 57.5067 102.524 59.44 103.297 61.12C104.097 62.7734 105.177 64.08 106.537 65.04ZM115.657 59.32C115.124 59.6667 114.471 59.84 113.697 59.84C112.924 59.84 112.271 59.6667 111.737 59.32C111.204 58.9467 110.791 58.4267 110.497 57.76C110.231 57.0934 110.097 56.28 110.097 55.32C110.097 54.36 110.231 53.5467 110.497 52.88C110.791 52.1867 111.204 51.6667 111.737 51.32C112.271 50.9734 112.924 50.8 113.697 50.8C114.471 50.8 115.124 50.9734 115.657 51.32C116.217 51.6667 116.631 52.1867 116.897 52.88C117.191 53.5467 117.337 54.36 117.337 55.32C117.337 56.28 117.191 57.0934 116.897 57.76C116.631 58.4267 116.217 58.9467 115.657 59.32Z" fill="#53C100"/>
</svg>
