<svg width="308" height="48" viewBox="0 0 308 48" fill="none" xmlns="http://www.w3.org/2000/svg">
<path d="M3.2 43V15H16.08C18.1067 15 19.8133 15.28 21.2 15.84C22.6133 16.4 23.68 17.1867 24.4 18.2C25.1467 19.2133 25.52 20.4 25.52 21.76C25.52 23.44 25.1333 24.8267 24.36 25.92C23.6133 27.0133 22.5067 27.7467 21.04 28.12L20.92 27.36C22.1467 27.6533 23.2133 28.1333 24.12 28.8C25.0267 29.44 25.7333 30.2267 26.24 31.16C26.7467 32.0933 27 33.16 27 34.36C27 35.8267 26.7333 37.1067 26.2 38.2C25.6667 39.2667 24.9067 40.16 23.92 40.88C22.96 41.6 21.84 42.1333 20.56 42.48C19.3067 42.8267 17.9467 43 16.48 43H3.2ZM11.2 36.2H16.24C16.7467 36.2 17.1733 36.12 17.52 35.96C17.8667 35.7733 18.1333 35.5067 18.32 35.16C18.5067 34.7867 18.6 34.3467 18.6 33.84C18.6 33.3867 18.4933 33.0133 18.28 32.72C18.0933 32.4 17.8133 32.16 17.44 32C17.0667 31.8133 16.6 31.72 16.04 31.72H11.2V36.2ZM11.2 25.96H14.6C15.2133 25.96 15.7067 25.88 16.08 25.72C16.48 25.56 16.76 25.3333 16.92 25.04C17.1067 24.72 17.2 24.3333 17.2 23.88C17.2 23.2667 16.9867 22.7733 16.56 22.4C16.16 22 15.48 21.8 14.52 21.8H11.2V25.96ZM38.5538 43.44C36.9271 43.44 35.5538 43.1067 34.4338 42.44C33.3138 41.7733 32.4604 40.8 31.8738 39.52C31.2871 38.2133 30.9938 36.64 30.9938 34.8V21.6H39.1138V34.12C39.1138 34.7067 39.2071 35.2 39.3938 35.6C39.6071 36 39.9004 36.3067 40.2738 36.52C40.6471 36.7333 41.1004 36.84 41.6338 36.84C42.0338 36.84 42.3938 36.7867 42.7138 36.68C43.0604 36.5467 43.3538 36.36 43.5938 36.12C43.8338 35.88 44.0204 35.6133 44.1538 35.32C44.2871 35 44.3538 34.6667 44.3538 34.32V21.6H52.4738V43H45.0338L44.5538 38.68L46.0738 38.2C45.7804 39.2133 45.2604 40.12 44.5138 40.92C43.7938 41.6933 42.9138 42.3067 41.8738 42.76C40.8338 43.2133 39.7271 43.44 38.5538 43.44ZM58.2716 43V21.6H66.3916V43H58.2716ZM62.3516 17.72C60.9116 17.72 59.7782 17.3867 58.9516 16.72C58.1516 16.0533 57.7516 15.1067 57.7516 13.88C57.7516 12.76 58.1649 11.84 58.9916 11.12C59.8182 10.4 60.9382 10.04 62.3516 10.04C63.7916 10.04 64.9116 10.3733 65.7116 11.04C66.5382 11.7067 66.9516 12.6533 66.9516 13.88C66.9516 15 66.5382 15.92 65.7116 16.64C64.8849 17.36 63.7649 17.72 62.3516 17.72ZM72.1359 43V13.4H80.2559V43H72.1359ZM86.8497 43V16.2H94.9697V43H86.8497ZM83.5297 28.4V21.6H98.4897V28.4H83.5297ZM101.297 35.08V27.88H116.817V35.08H101.297ZM121.748 43V21.6H129.868V43H121.748ZM125.828 17.72C124.388 17.72 123.255 17.3867 122.428 16.72C121.628 16.0533 121.228 15.1067 121.228 13.88C121.228 12.76 121.641 11.84 122.468 11.12C123.295 10.4 124.415 10.04 125.828 10.04C127.268 10.04 128.388 10.3733 129.188 11.04C130.015 11.7067 130.428 12.6533 130.428 13.88C130.428 15 130.015 15.92 129.188 16.64C128.361 17.36 127.241 17.72 125.828 17.72ZM135.613 43V21.6H143.133L143.533 25.92L141.813 26.4C142.106 25.3867 142.626 24.4933 143.372 23.72C144.146 22.92 145.066 22.2933 146.133 21.84C147.199 21.3867 148.333 21.16 149.533 21.16C151.133 21.16 152.493 21.4933 153.613 22.16C154.733 22.8267 155.573 23.8133 156.133 25.12C156.719 26.4 157.013 27.96 157.013 29.8V43H148.893V30.48C148.893 29.8933 148.799 29.4 148.613 29C148.426 28.6 148.146 28.2933 147.773 28.08C147.399 27.8667 146.959 27.76 146.453 27.76C146.053 27.76 145.679 27.8267 145.333 27.96C145.013 28.0667 144.733 28.24 144.493 28.48C144.253 28.72 144.066 28.9867 143.933 29.28C143.799 29.5733 143.733 29.9067 143.733 30.28V43H139.693C138.679 43 137.826 43 137.133 43C136.466 43 135.959 43 135.613 43ZM161.414 35.08V27.88H176.934V35.08H161.414ZM182.145 43V15H195.025C197.052 15 198.759 15.28 200.145 15.84C201.559 16.4 202.625 17.1867 203.345 18.2C204.092 19.2133 204.465 20.4 204.465 21.76C204.465 23.44 204.079 24.8267 203.305 25.92C202.559 27.0133 201.452 27.7467 199.985 28.12L199.865 27.36C201.092 27.6533 202.159 28.1333 203.065 28.8C203.972 29.44 204.679 30.2267 205.185 31.16C205.692 32.0933 205.945 33.16 205.945 34.36C205.945 35.8267 205.679 37.1067 205.145 38.2C204.612 39.2667 203.852 40.16 202.865 40.88C201.905 41.6 200.785 42.1333 199.505 42.48C198.252 42.8267 196.892 43 195.425 43H182.145ZM190.145 36.2H195.185C195.692 36.2 196.119 36.12 196.465 35.96C196.812 35.7733 197.079 35.5067 197.265 35.16C197.452 34.7867 197.545 34.3467 197.545 33.84C197.545 33.3867 197.439 33.0133 197.225 32.72C197.039 32.4 196.759 32.16 196.385 32C196.012 31.8133 195.545 31.72 194.985 31.72H190.145V36.2ZM190.145 25.96H193.545C194.159 25.96 194.652 25.88 195.025 25.72C195.425 25.56 195.705 25.3333 195.865 25.04C196.052 24.72 196.145 24.3333 196.145 23.88C196.145 23.2667 195.932 22.7733 195.505 22.4C195.105 22 194.425 21.8 193.465 21.8H190.145V25.96ZM220.74 43.4C218.42 43.4 216.353 42.92 214.54 41.96C212.727 41 211.3 39.6933 210.26 38.04C209.22 36.36 208.7 34.44 208.7 32.28C208.7 30.12 209.22 28.2133 210.26 26.56C211.3 24.88 212.727 23.56 214.54 22.6C216.353 21.64 218.42 21.16 220.74 21.16C223.06 21.16 225.113 21.64 226.9 22.6C228.713 23.56 230.127 24.88 231.14 26.56C232.18 28.2133 232.7 30.12 232.7 32.28C232.7 34.44 232.18 36.36 231.14 38.04C230.127 39.6933 228.713 41 226.9 41.96C225.113 42.92 223.06 43.4 220.74 43.4ZM220.74 36.6C221.46 36.6 222.1 36.4133 222.66 36.04C223.247 35.6667 223.7 35.16 224.02 34.52C224.34 33.8533 224.5 33.1067 224.5 32.28C224.5 31.4267 224.34 30.68 224.02 30.04C223.7 29.3733 223.247 28.8533 222.66 28.48C222.1 28.1067 221.46 27.92 220.74 27.92C219.993 27.92 219.327 28.1067 218.74 28.48C218.18 28.8533 217.727 29.3733 217.38 30.04C217.06 30.68 216.9 31.4267 216.9 32.28C216.9 33.1067 217.06 33.8533 217.38 34.52C217.727 35.16 218.18 35.6667 218.74 36.04C219.327 36.4133 219.993 36.6 220.74 36.6ZM244.346 43.36C242.56 43.36 240.973 42.8933 239.586 41.96C238.2 41 237.106 39.6933 236.306 38.04C235.506 36.36 235.106 34.44 235.106 32.28C235.106 30.0933 235.493 28.1733 236.266 26.52C237.066 24.84 238.16 23.5333 239.546 22.6C240.96 21.64 242.586 21.16 244.426 21.16C245.386 21.16 246.266 21.2933 247.066 21.56C247.866 21.8267 248.573 22.2 249.186 22.68C249.8 23.16 250.333 23.72 250.786 24.36C251.24 24.9733 251.626 25.64 251.946 26.36L250.306 26.32V21.6H258.266V43H250.106V37.76L251.906 37.92C251.64 38.6933 251.266 39.4133 250.786 40.08C250.333 40.7467 249.786 41.32 249.146 41.8C248.506 42.28 247.786 42.6667 246.986 42.96C246.186 43.2267 245.306 43.36 244.346 43.36ZM246.666 36.76C247.44 36.76 248.093 36.5867 248.626 36.24C249.186 35.8933 249.6 35.3867 249.866 34.72C250.16 34.0533 250.306 33.24 250.306 32.28C250.306 31.32 250.16 30.5067 249.866 29.84C249.6 29.1467 249.186 28.6267 248.626 28.28C248.093 27.9333 247.44 27.76 246.666 27.76C245.893 27.76 245.24 27.9333 244.706 28.28C244.173 28.6267 243.76 29.1467 243.466 29.84C243.2 30.5067 243.066 31.32 243.066 32.28C243.066 33.24 243.2 34.0533 243.466 34.72C243.76 35.3867 244.173 35.8933 244.706 36.24C245.24 36.5867 245.893 36.76 246.666 36.76ZM263.855 43V21.6H271.375L271.855 28.72L270.055 27.6C270.401 26.3733 270.948 25.28 271.695 24.32C272.441 23.3333 273.335 22.56 274.375 22C275.441 21.44 276.575 21.16 277.775 21.16C278.255 21.16 278.708 21.2 279.135 21.28C279.561 21.3333 279.975 21.4133 280.375 21.52L278.135 30.52C277.868 30.3333 277.441 30.16 276.855 30C276.295 29.84 275.681 29.76 275.015 29.76C274.535 29.76 274.095 29.84 273.695 30C273.321 30.1333 273.001 30.3467 272.735 30.64C272.495 30.9333 272.308 31.28 272.175 31.68C272.041 32.08 271.975 32.5467 271.975 33.08V43H263.855ZM290.203 43.44C288.443 43.44 286.869 42.9733 285.483 42.04C284.123 41.08 283.043 39.7733 282.243 38.12C281.469 36.44 281.083 34.5067 281.083 32.32C281.083 30.16 281.483 28.24 282.283 26.56C283.083 24.88 284.176 23.56 285.563 22.6C286.976 21.64 288.589 21.16 290.403 21.16C291.309 21.16 292.176 21.2933 293.003 21.56C293.829 21.8 294.576 22.16 295.243 22.64C295.909 23.0933 296.469 23.64 296.923 24.28C297.403 24.8933 297.723 25.56 297.883 26.28L296.083 26.84V13.4H304.243V43H296.923L296.283 38.28L297.923 38.64C297.789 39.3333 297.496 39.9733 297.043 40.56C296.589 41.1467 296.016 41.6533 295.323 42.08C294.656 42.5067 293.883 42.84 293.003 43.08C292.123 43.32 291.189 43.44 290.203 43.44ZM292.643 36.84C293.416 36.84 294.069 36.6667 294.603 36.32C295.163 35.9467 295.576 35.4267 295.843 34.76C296.136 34.0933 296.283 33.28 296.283 32.32C296.283 31.36 296.136 30.5467 295.843 29.88C295.576 29.1867 295.163 28.6667 294.603 28.32C294.069 27.9733 293.416 27.8 292.643 27.8C291.869 27.8 291.216 27.9733 290.683 28.32C290.149 28.6667 289.736 29.1867 289.443 29.88C289.176 30.5467 289.043 31.36 289.043 32.32C289.043 33.28 289.176 34.0933 289.443 34.76C289.736 35.4267 290.149 35.9467 290.683 36.32C291.216 36.6667 291.869 36.84 292.643 36.84Z" fill="#67E21B"/>
</svg>
